PathFileType	4	(X/Y/Z)	D:\TRACE\v60_Jaco2_6-2-23\BothDRS_Motion3_7-v60.trc
DataRate	CameraRate	NumFrames	NumMarkers	Units	OrigDataRate	OrigDataStartFrame	OrigNumFrames
100.00	100.00	      42	9	mm	100.00	4376	      7000
Frame#	Time	front left toe			Front right toe			aft left toe			aft right toe			Arm			FL body			FR body			AL Body			AR Body			
		X1	Y1	Z1	X2	Y2	Z2	X3	Y3	Z3	X4	Y4	Z4	X5	Y5	Z5	X6	Y6	Z6	X7	Y7	Z7	X8	Y8	Z8	X9	Y9	Z9	

4376	43.750	-90.38049	15.81479	-144.75169	253.85443	68.75421	-176.37514	-97.72152	61.27958	444.86121	294.29361	8.00068	474.70346	141.51515	1106.81445	-475.54019	18.51968	510.92685	-321.43713	177.09363	501.53381	-321.26678	27.98538	575.57227	620.96655	180.11447	557.24066	621.18903	
4377	43.760	-90.70262	15.80016	-144.67891	255.47740	79.85468	-174.75429	-99.55795	72.15961	446.28934	294.26147	7.40792	474.91168	140.15390	1107.80688	-472.58664	17.99863	511.37158	-320.75308	176.16533	502.06180	-320.29709	27.71880	573.42603	622.19019	179.83287	555.21417	622.19952	
4378	43.770	-91.18486	15.44341	-144.31842	257.73730	91.23867	-172.76881	-100.61816	83.31993	448.10110	294.04630	7.19874	475.09564	139.23730	1108.65942	-469.56784	17.67494	511.66376	-319.72858	175.46666	502.51346	-319.24051	27.53283	571.53180	623.10754	179.65398	553.42950	623.34802	
4379	43.780	-91.51478	15.57122	-144.09851	259.87192	101.88479	-169.54872	-100.25159	93.24489	450.58383	293.61111	6.74512	475.29605	137.42453	1110.06726	-466.45886	17.71112	511.61172	-318.86948	175.13837	502.96411	-318.68323	27.16456	569.63934	624.08594	178.22087	551.74506	624.04639	
4380	43.790	-91.63391	15.63968	-143.84918	261.62921	111.62457	-167.00119	-100.16212	102.68143	452.82849	293.31238	5.99541	475.46567	135.91507	1111.34326	-463.38385	17.17171	511.93610	-318.14029	175.94939	502.75000	-317.99362	27.04740	567.92938	624.92883	178.12779	550.20215	625.02289	
4381	43.800	-91.80798	15.70907	-143.68935	262.15912	120.27184	-165.03001	-99.21330	110.48774	455.11829	293.44904	5.57604	475.56381	134.70027	1112.59912	-460.38107	16.54988	512.23376	-317.41379	175.28917	503.16498	-317.55283	26.61532	566.44415	625.88678	178.19441	548.67358	625.71997	
4382	43.810	-92.03236	15.91471	-143.49797	263.40442	128.15541	-163.01222	-100.13159	118.16339	457.02240	293.28384	4.43012	475.44543	133.33498	1113.70251	-457.74994	16.18710	512.51605	-316.90546	174.78984	503.68900	-316.75620	26.41244	565.01117	626.67773	177.90204	546.96161	625.80042	
4383	43.820	-92.07780	15.94906	-143.32861	264.50500	134.74409	-161.25742	-99.86240	123.53893	459.20627	293.68573	4.77056	476.22998	132.69173	1114.80273	-455.12796	15.15646	513.12848	-316.12421	173.24901	504.54880	-316.00943	26.32970	563.42755	627.42719	178.82800	545.57959	626.22699	
4384	43.830	-92.14040	16.02472	-143.22798	266.61548	140.30870	-159.37254	-101.21797	129.14679	461.12888	293.43140	4.22550	476.31287	131.03867	1116.09521	-452.82678	14.76321	513.50537	-315.35468	172.53413	505.03244	-315.59451	26.43640	562.31995	628.12988	178.87242	544.46625	626.87616	
4385	43.840	-92.33385	16.23609	-143.09010	267.64694	143.99094	-158.18925	-101.65227	132.14587	462.67685	293.23419	3.47956	476.42465	129.84790	1117.13806	-450.41394	13.99977	514.37549	-314.67603	171.89424	505.83875	-314.93301	26.38557	561.28992	628.69745	178.79242	543.34747	627.57281	
4386	43.850	-92.48859	16.58034	-142.94771	266.99030	142.66028	-156.80597	-102.30061	130.90736	464.99689	293.20325	3.27764	476.64996	128.22165	1118.62659	-448.33490	13.15925	514.95349	-314.29956	170.90688	506.68341	-314.57306	26.33997	560.39716	629.31500	178.54637	542.50354	627.87042	
4387	43.860	-92.59499	16.81290	-142.76790	268.56979	140.28711	-154.34100	-103.34811	128.10721	467.51080	293.29074	3.02973	476.61823	126.16717	1119.93445	-446.15875	12.16274	515.88818	-314.06555	170.38603	507.15247	-314.50238	26.48839	559.45190	629.78485	178.75386	541.70325	628.08838	
4388	43.870	-92.68229	16.89370	-142.62485	267.88895	135.75656	-152.60165	-103.25436	123.84630	469.74460	293.16129	2.66528	476.57675	124.66998	1121.39905	-444.12970	11.26536	516.39465	-313.62512	169.19096	507.79010	-314.36130	26.25998	558.81073	630.10034	178.64723	541.14508	628.30566	
4389	43.880	-92.72615	16.95581	-142.38969	267.40097	130.12050	-150.89825	-102.89590	118.87149	471.79749	293.12952	2.51944	476.69653	123.14256	1122.87170	-442.27271	10.37898	516.78662	-313.41180	169.02284	508.30566	-314.47205	26.11519	558.39838	630.31873	178.12683	540.94751	628.29315	
4390	43.890	-92.73186	16.96266	-142.24792	266.22058	123.02399	-149.93430	-101.41752	112.83409	474.05359	292.94266	2.06396	476.75412	121.03386	1124.13831	-440.64661	9.69287	517.15216	-313.34146	167.35677	508.90976	-314.14505	25.84619	557.75378	630.51355	178.37949	540.44519	628.34637	
4391	43.900	-92.76912	16.94738	-142.12866	267.33188	116.05698	-147.96834	-101.30670	106.99616	476.29648	292.83752	1.61180	476.77988	119.25655	1125.28442	-439.17368	8.72399	517.44147	-313.12497	166.46381	509.41519	-314.18420	25.69390	557.08350	630.58667	178.03905	539.82672	628.32532	
4392	43.910	-92.88947	16.98191	-141.99728	267.28607	108.56308	-147.39919	-101.14049	100.05394	478.21060	292.76871	1.40326	476.78519	117.35833	1126.02258	-437.77972	7.76486	517.76520	-312.97894	165.75542	509.81787	-314.56412	25.41768	556.53693	630.60016	177.85315	539.44025	628.42865	
4393	43.920	-92.99999	16.90489	-141.84154	267.27365	100.35865	-146.65102	-102.64716	93.18445	479.55603	293.02649	1.26822	476.88266	115.24829	1126.54358	-436.72095	6.69513	518.11462	-313.26968	164.73544	510.05487	-314.58804	25.03764	555.92749	630.70947	177.75845	539.04865	628.19910	
4394	43.930	-93.03808	16.81129	-141.65225	267.50519	92.28012	-145.90466	-102.46648	84.85757	480.51672	293.03250	1.14602	476.90616	112.84127	1127.12085	-435.85614	5.95822	517.88861	-312.99283	164.51427	510.27121	-314.80096	24.94665	555.23517	630.59814	177.21707	538.67590	628.16205	
4395	43.940	-93.22433	16.81244	-141.57571	267.12070	83.05294	-145.58488	-102.79050	77.33894	481.34491	293.01324	0.90893	476.87967	110.43031	1127.66272	-435.08179	4.58323	518.17944	-313.37033	162.62874	510.91754	-315.00586	24.53029	554.58643	630.47540	176.65781	538.60522	628.89813	
4396	43.950	-93.29970	16.81174	-141.45329	268.32709	74.24020	-144.45073	-103.04293	69.49947	481.75946	293.00461	0.68005	476.88168	108.15057	1128.13037	-434.37262	3.79185	518.17279	-313.48975	162.32205	511.26657	-315.55478	24.10077	554.08887	630.43695	176.11880	537.67401	627.32629	
4397	43.960	-93.40987	16.78136	-141.36147	266.60883	64.57700	-144.71303	-103.42422	60.92368	481.84213	293.02493	0.52133	476.87439	105.64755	1128.63574	-433.69196	2.52473	518.70746	-313.81348	161.44330	511.51920	-315.90909	23.59386	553.48065	630.10815	175.53313	537.39880	626.91486	
4398	43.970	-93.57446	16.84163	-141.27335	266.38391	55.55799	-145.31442	-104.02236	52.76325	481.76096	293.06628	0.35089	476.97873	103.42041	1129.54089	-432.86057	1.70397	518.72565	-314.14609	159.74966	512.06842	-316.15109	23.30210	553.11359	629.93781	175.75421	536.97003	626.62262	
4399	43.980	-93.58004	16.78102	-141.19543	266.12094	47.66302	-145.81354	-104.77407	44.45602	480.66766	293.07913	0.08106	476.94193	101.55962	1130.62244	-431.98688	0.47836	519.13483	-314.51529	158.46402	512.58295	-316.78516	22.82926	552.37561	629.35455	175.36162	536.48126	626.33990	
4400	43.990	-93.59035	16.73513	-141.12477	264.86368	39.66255	-147.64877	-104.83670	36.05418	479.40506	293.05466	-0.11335	476.92590	99.44190	1131.69116	-430.89374	-0.55128	519.43201	-315.15686	157.25316	513.30933	-317.37671	22.55925	551.83893	628.99518	174.97752	535.81641	625.49817	
4401	44.000	-93.53407	16.74605	-141.07852	263.99762	32.36210	-149.65820	-105.81474	28.65787	477.66406	293.07782	-0.16669	476.90598	97.04270	1132.92395	-430.21991	-1.72975	519.93274	-315.54721	156.09334	513.77008	-317.83463	22.04021	551.14337	628.61829	174.53087	535.36847	625.02509	
4402	44.010	-93.39138	16.70954	-141.06808	262.32605	26.24767	-151.89574	-106.38103	21.92136	475.85532	293.18652	-0.19251	476.86380	94.23580	1134.45166	-429.62231	-3.00243	520.23413	-316.15329	156.06882	513.95160	-318.81644	21.83864	550.46033	627.88953	173.96835	534.90869	624.19525	
4403	44.020	-93.63561	17.23019	-141.38145	260.71594	23.29971	-155.13661	-107.32204	15.18857	474.02341	293.52692	-0.14927	476.79993	92.14367	1135.78113	-428.83365	-3.95679	520.68207	-316.56827	154.65384	514.53656	-319.83499	21.37286	549.64441	627.02148	173.48758	534.23462	623.26654	
4404	44.030	-92.82693	16.48013	-141.10735	261.68347	21.40114	-154.61145	-108.31652	8.61188	471.95105	293.70648	-0.16798	476.69800	89.87098	1136.78711	-428.16223	-5.41493	521.07874	-317.58298	153.50768	515.25824	-320.38098	20.56803	549.14764	626.59674	173.03146	533.73669	622.61676	
4405	44.040	-92.59633	16.49171	-141.20490	262.61392	21.79213	-156.03093	-108.89341	4.07591	469.69186	293.93494	-0.13096	476.59860	87.58067	1137.89429	-427.92404	-6.10087	521.70758	-317.78854	151.97203	516.17383	-320.83371	19.77061	548.43622	626.01434	172.29625	533.44318	621.94012	
4406	44.050	-92.27893	16.61854	-141.33994	263.76752	22.53719	-154.46060	-109.39879	1.44635	470.22012	293.87341	-0.00968	476.46149	84.27816	1139.26318	-427.96445	-7.38379	523.00885	-318.40436	151.25005	517.33344	-321.53653	19.34133	548.79999	625.53247	170.93202	533.81335	621.53815	
4407	44.060	-92.18086	17.28347	-141.48521	264.03986	22.34480	-154.74020	-109.57167	1.43519	469.65253	293.43982	0.24682	476.06805	81.13049	1140.19141	-427.44547	-8.59617	523.35339	-318.80850	149.41689	517.82501	-321.86008	18.57714	550.46240	625.33636	170.37196	535.41516	620.94287	
4408	44.070	-91.82293	19.85061	-141.33080	263.59509	21.63009	-154.60373	-108.83627	0.95597	470.73969	291.30679	3.57722	476.03787	78.63178	1141.65479	-427.45956	-10.01622	523.60901	-319.22351	148.03906	518.51550	-322.25516	17.94365	552.03003	624.87811	169.83282	537.03839	620.51477	
4409	44.080	-88.34650	23.92037	-140.01389	264.35513	22.19188	-154.38481	-108.26443	0.78939	470.38593	288.34692	7.32414	478.34146	75.94203	1143.33569	-428.19302	-11.34358	524.39282	-319.55264	146.97563	519.57111	-323.06982	17.30230	552.46014	624.38971	169.16344	537.83020	619.76978	
4410	44.090	-84.47171	31.01413	-138.13112	264.07370	22.11992	-154.63368	-108.43367	0.47235	470.36115	284.92938	16.39330	478.63892	73.06841	1144.11389	-428.89771	-12.64221	525.22699	-320.26236	145.41933	520.33417	-323.79211	17.00299	552.20215	623.65448	169.50391	537.91681	619.66205	
4411	44.100	-83.36576	42.17766	-139.64409	264.03143	21.98271	-155.08551	-108.38287	0.24415	470.36252	281.97293	25.81760	478.60175	70.36136	1143.99121	-429.12607	-13.64266	525.50610	-320.90451	144.45668	521.23273	-324.20804	16.29583	551.76117	622.95947	168.31879	537.36627	618.19849	
4412	44.110	-86.20118	54.79404	-141.81848	263.75040	22.14817	-154.72702	-108.42467	0.66726	470.60587	280.36694	37.97498	474.73660	68.34424	1143.97070	-429.35126	-14.70874	525.75598	-321.72186	143.28868	521.66907	-325.32706	15.14528	551.35291	622.12213	167.70253	537.24689	617.51611	
4413	44.120	-89.80751	67.89478	-144.69952	264.29205	22.21462	-154.64691	-108.30798	0.41063	470.50470	280.84082	51.72206	472.17157	66.67255	1144.19556	-429.62271	-15.32220	525.21930	-322.46146	142.65044	521.38922	-325.94098	14.39483	550.64783	621.64490	166.67953	536.99438	616.68323	
4414	44.130	-93.90809	81.06546	-147.26003	264.43777	21.74954	-155.24463	-108.69814	0.53343	470.15067	281.55222	65.43644	468.76508	64.61800	1144.67065	-429.62781	-16.21140	524.85956	-323.49759	142.07909	521.39984	-327.05054	13.39727	549.93066	620.56708	165.70782	536.41614	616.09430	
4415	44.140	-97.90090	94.11612	-149.51392	264.81912	21.74482	-155.29439	-108.77589	0.16317	470.03397	281.65723	78.58317	466.14648	62.25895	1144.93872	-429.62671	-16.74822	524.32935	-324.09753	141.53645	521.40582	-327.61414	11.79694	549.22687	619.80237	164.24977	535.83087	615.21637	
4416	44.150	-101.67854	106.41314	-151.48520	265.05280	21.87714	-155.26842	-108.23945	-0.41389	470.31949	280.23639	91.03863	463.99457	60.59976	1144.86060	-429.76691	-17.62408	524.11249	-325.37067	140.34680	520.99609	-328.50748	10.74376	548.49310	618.96240	163.30394	535.56726	614.62262	
4417	44.160	-105.10227	118.13286	-153.20822	264.78607	21.74282	-155.46783	-108.06184	-0.41232	470.36911	277.75653	103.07153	461.82593	58.90477	1145.00610	-430.15744	-18.23914	523.42712	-325.92581	139.86217	520.81927	-329.35413	9.49007	548.03815	618.28497	162.03658	535.11426	613.79492	
